<svg xmlns="http://www.w3.org/2000/svg" xmlns:xlink="http://www.w3.org/1999/xlink" width="2000" zoomAndPan="magnify" viewBox="0 0 1500 1499.999933" height="2000" preserveAspectRatio="xMidYMid meet" version="1.0"><defs><clipPath id="12dc630cf1"><path d="M 169.6875 169.6875 L 1330.6875 169.6875 L 1330.6875 1330.6875 L 169.6875 1330.6875 Z M 169.6875 169.6875 " clip-rule="nonzero"/></clipPath></defs><g clip-path="url(#12dc630cf1)"><path fill="#ffffff" d="M 509.621094 173.679688 C 447.878906 176.578125 405.714844 186.476562 368.855469 200.914062 C 330.683594 215.789062 298.367188 235.695312 266.210938 268.015625 C 234 300.335938 214.203125 332.707031 199.492188 370.933594 C 185.21875 407.902344 175.539062 450.066406 172.804688 511.863281 C 170.070312 573.714844 169.46875 593.457031 169.742188 751.0625 C 170.015625 908.613281 170.726562 928.410156 173.679688 990.316406 C 176.632812 1052.058594 186.476562 1094.167969 200.914062 1131.082031 C 215.789062 1169.253906 235.695312 1201.515625 268.015625 1233.726562 C 300.335938 1265.9375 332.707031 1285.679688 370.933594 1300.445312 C 407.847656 1314.71875 450.066406 1324.453125 511.808594 1327.132812 C 573.714844 1329.867188 593.457031 1330.46875 751.007812 1330.140625 C 908.613281 1329.867188 928.355469 1329.15625 990.261719 1326.203125 C 1052.003906 1323.25 1094.113281 1313.351562 1131.027344 1298.96875 C 1169.199219 1284.039062 1201.515625 1264.1875 1233.671875 1231.867188 C 1265.828125 1199.546875 1285.625 1167.175781 1300.390625 1128.949219 C 1314.664062 1092.035156 1324.398438 1049.816406 1327.078125 988.128906 C 1329.757812 926.222656 1330.414062 906.425781 1330.140625 748.875 C 1329.867188 591.324219 1329.101562 571.582031 1326.203125 509.675781 C 1323.25 447.878906 1313.40625 405.769531 1298.96875 368.855469 C 1284.039062 330.683594 1264.1875 298.421875 1231.867188 266.210938 C 1199.546875 234.054688 1167.175781 214.203125 1128.949219 199.492188 C 1092.035156 185.21875 1049.816406 175.484375 988.074219 172.804688 C 926.167969 170.070312 906.371094 169.46875 748.820312 169.742188 C 591.269531 170.015625 571.527344 170.726562 509.621094 173.679688 M 516.402344 1222.625 C 459.855469 1220.164062 429.121094 1210.757812 408.613281 1202.882812 C 381.488281 1192.382812 362.183594 1179.808594 341.785156 1159.628906 C 321.441406 1139.339844 308.867188 1120.035156 298.257812 1093.019531 C 290.328125 1072.566406 280.757812 1041.886719 278.078125 985.285156 C 275.179688 924.144531 274.523438 905.769531 274.25 750.84375 C 273.976562 595.972656 274.523438 577.597656 277.203125 516.402344 C 279.609375 459.855469 289.070312 429.121094 296.945312 408.667969 C 307.445312 381.542969 319.964844 362.238281 340.199219 341.839844 C 360.488281 321.496094 379.792969 308.921875 406.863281 298.3125 C 427.316406 290.328125 457.996094 280.8125 514.542969 278.132812 C 575.738281 275.234375 594.058594 274.632812 748.984375 274.304688 C 903.910156 273.976562 922.285156 274.523438 983.480469 277.257812 C 1040.027344 279.71875 1070.761719 289.070312 1091.214844 297 C 1118.339844 307.5 1137.699219 319.964844 1158.042969 340.253906 C 1178.386719 360.542969 1191.019531 379.792969 1201.570312 406.917969 C 1209.554688 427.316406 1219.070312 458.050781 1221.75 514.542969 C 1224.648438 575.738281 1225.304688 594.113281 1225.578125 748.984375 C 1225.851562 903.910156 1225.304688 922.285156 1222.625 983.425781 C 1220.164062 1039.972656 1210.757812 1070.761719 1202.882812 1091.214844 C 1192.386719 1118.285156 1179.863281 1137.644531 1159.574219 1157.988281 C 1139.285156 1178.277344 1120.035156 1190.910156 1092.910156 1201.515625 C 1072.511719 1209.5 1041.777344 1219.015625 985.285156 1221.695312 C 924.089844 1224.59375 905.773438 1225.25 750.789062 1225.523438 C 595.917969 1225.796875 577.542969 1225.25 516.347656 1222.570312 M 989.441406 439.785156 C 989.496094 478.230469 1020.777344 509.347656 1059.167969 509.238281 C 1097.613281 509.183594 1128.730469 477.957031 1128.675781 439.511719 C 1128.621094 401.066406 1097.339844 369.949219 1058.894531 370.003906 C 1020.449219 370.058594 989.332031 401.339844 989.386719 439.730469 M 451.980469 750.515625 C 452.308594 915.066406 585.964844 1048.175781 750.460938 1047.847656 C 915.011719 1047.519531 1048.175781 913.917969 1047.847656 749.367188 C 1047.519531 584.871094 913.863281 451.707031 749.3125 451.980469 C 584.816406 452.308594 451.652344 585.964844 451.980469 750.515625 M 556.488281 750.296875 C 556.324219 643.492188 642.726562 556.707031 749.53125 556.542969 C 856.335938 556.324219 943.121094 642.726562 943.339844 749.585938 C 943.558594 856.390625 857.101562 943.175781 750.296875 943.339844 C 643.492188 943.558594 556.707031 857.101562 556.542969 750.296875 " fill-opacity="1" fill-rule="nonzero"/></g></svg>