<svg xmlns="http://www.w3.org/2000/svg" xmlns:xlink="http://www.w3.org/1999/xlink" width="2000" zoomAndPan="magnify" viewBox="0 0 1500 1499.999933" height="2000" preserveAspectRatio="xMidYMid meet" version="1.0"><path fill="#ffffff" d="M 757.648438 1335.601562 C 754.25 1335.601562 750.847656 1335.601562 748.300781 1335.601562 C 746.597656 1335.601562 744.050781 1335.601562 742.351562 1335.601562 C 668.40625 1335.601562 620.808594 1302.453125 574.914062 1269.308594 C 543.464844 1247.207031 513.71875 1225.960938 478.023438 1220.011719 C 461.023438 1217.460938 444.023438 1215.761719 427.027344 1215.761719 C 397.277344 1215.761719 373.480469 1220.011719 356.480469 1223.410156 C 346.28125 1225.109375 336.933594 1226.808594 330.132812 1226.808594 C 323.335938 1226.808594 314.835938 1225.109375 312.285156 1214.0625 C 309.734375 1203.863281 307.1875 1194.511719 305.484375 1185.164062 C 300.386719 1161.367188 296.136719 1146.066406 286.789062 1145.21875 C 169.496094 1127.367188 135.5 1102.71875 128.699219 1084.871094 C 127.851562 1082.320312 127 1079.773438 127 1077.222656 C 127 1070.421875 131.25 1064.472656 138.050781 1063.625 C 318.234375 1033.875 398.976562 849.441406 402.378906 841.792969 C 402.378906 841.792969 402.378906 840.941406 402.378906 840.941406 C 413.425781 818.84375 415.976562 799.296875 409.175781 783.148438 C 396.429688 754.25 356.480469 741.5 330.132812 733 C 323.335938 731.300781 317.386719 728.75 312.285156 727.050781 C 258.738281 705.804688 254.492188 684.554688 257.039062 673.507812 C 260.441406 654.808594 285.9375 641.210938 306.335938 641.210938 C 312.285156 641.210938 316.535156 642.058594 320.785156 643.757812 C 344.582031 654.808594 366.679688 660.757812 385.378906 660.757812 C 410.878906 660.757812 422.777344 649.707031 423.625 648.859375 C 422.777344 636.960938 421.925781 624.210938 421.078125 610.613281 C 415.976562 525.617188 409.175781 419.378906 436.375 359.03125 C 517.117188 177.996094 688.804688 163.546875 738.949219 163.546875 C 740.648438 163.546875 761.046875 163.546875 761.046875 163.546875 L 764.449219 163.546875 C 815.445312 163.546875 987.128906 177.996094 1067.871094 359.03125 C 1095.070312 419.378906 1088.269531 525.617188 1083.171875 610.613281 L 1083.171875 614.011719 C 1082.320312 625.910156 1081.472656 637.808594 1081.472656 648.859375 C 1083.171875 650.558594 1093.371094 659.90625 1116.320312 660.757812 C 1134.167969 659.90625 1154.566406 654.808594 1176.664062 643.757812 C 1183.464844 640.359375 1190.261719 640.359375 1195.363281 640.359375 C 1203.011719 640.359375 1210.660156 642.058594 1216.609375 644.609375 C 1234.457031 651.40625 1246.359375 663.308594 1247.207031 676.90625 C 1247.207031 689.65625 1237.859375 708.351562 1191.113281 727.050781 C 1186.011719 728.75 1180.0625 731.300781 1173.265625 733 C 1146.917969 741.5 1106.121094 754.25 1094.21875 783.148438 C 1087.421875 799.296875 1089.972656 818.84375 1101.019531 840.941406 C 1101.019531 840.941406 1101.019531 841.792969 1101.019531 841.792969 C 1104.417969 849.441406 1185.164062 1033.875 1365.347656 1063.625 C 1372.148438 1064.472656 1376.398438 1070.421875 1376.398438 1077.222656 C 1376.398438 1079.773438 1375.546875 1082.320312 1374.699219 1084.871094 C 1367.046875 1101.871094 1333.902344 1127.367188 1216.609375 1145.21875 C 1207.261719 1146.917969 1203.011719 1158.816406 1197.910156 1185.164062 C 1196.210938 1194.511719 1193.664062 1203.863281 1191.113281 1214.0625 C 1188.5625 1222.5625 1183.464844 1226.808594 1174.113281 1226.808594 L 1172.414062 1226.808594 C 1166.464844 1226.808594 1157.117188 1225.960938 1146.066406 1223.410156 C 1126.519531 1219.160156 1103.570312 1215.761719 1075.523438 1215.761719 C 1059.375 1215.761719 1041.523438 1217.460938 1024.527344 1220.011719 C 989.679688 1225.960938 959.082031 1247.207031 927.632812 1269.308594 C 879.1875 1302.453125 831.59375 1335.601562 757.648438 1335.601562 Z M 757.648438 1335.601562 " fill-opacity="1" fill-rule="nonzero"/><path fill="#ffffff" d="M 762.746094 177.148438 C 811.195312 177.148438 976.082031 189.898438 1054.273438 364.980469 C 1079.773438 422.777344 1072.972656 526.46875 1067.871094 610.613281 C 1067.023438 624.210938 1066.171875 636.960938 1065.324219 648.859375 L 1065.324219 653.957031 L 1068.722656 658.207031 C 1070.421875 659.90625 1083.171875 673.507812 1112.917969 675.207031 L 1114.617188 675.207031 C 1134.167969 674.355469 1156.265625 668.40625 1180.0625 657.359375 C 1183.464844 655.65625 1188.5625 654.808594 1193.660156 654.808594 C 1199.613281 654.808594 1205.5625 655.65625 1210.660156 658.207031 L 1211.511719 658.207031 C 1224.257812 662.457031 1232.757812 670.957031 1232.757812 678.605469 C 1232.757812 682.855469 1229.359375 698.15625 1185.164062 716.003906 C 1180.914062 717.703125 1174.964844 719.402344 1168.164062 721.953125 C 1139.265625 731.300781 1095.070312 744.898438 1080.621094 779.746094 C 1072.121094 799.296875 1074.671875 822.242188 1087.421875 848.589844 C 1092.519531 860.492188 1175.8125 1047.476562 1361.949219 1078.074219 C 1361.949219 1078.921875 1361.949219 1079.773438 1361.097656 1081.472656 C 1357.699219 1089.121094 1338.148438 1114.621094 1213.210938 1134.167969 C 1193.660156 1137.566406 1188.5625 1158.816406 1183.460938 1184.3125 C 1181.761719 1193.664062 1179.214844 1203.011719 1176.664062 1212.363281 C 1175.8125 1214.910156 1175.8125 1215.761719 1172.414062 1215.761719 C 1172.414062 1215.761719 1171.5625 1215.761719 1170.714844 1215.761719 C 1164.765625 1215.761719 1157.113281 1214.910156 1146.914062 1212.363281 C 1129.066406 1208.960938 1105.269531 1204.710938 1073.820312 1204.710938 C 1056.824219 1204.710938 1038.976562 1206.410156 1021.125 1208.960938 C 982.878906 1214.910156 951.433594 1237.007812 919.136719 1260.808594 C 874.9375 1292.253906 829.042969 1324.550781 759.347656 1324.550781 C 755.949219 1324.550781 753.398438 1324.550781 750 1324.550781 L 748.300781 1324.550781 C 746.597656 1324.550781 744.898438 1324.550781 743.199219 1324.550781 C 673.503906 1324.550781 627.609375 1292.253906 583.414062 1260.808594 C 550.265625 1237.859375 519.667969 1215.761719 481.421875 1208.960938 C 463.574219 1206.410156 445.722656 1204.710938 428.726562 1204.710938 C 398.128906 1204.710938 373.480469 1209.8125 355.632812 1213.210938 C 346.28125 1214.910156 337.785156 1216.609375 331.832031 1216.609375 C 327.585938 1216.609375 327.585938 1216.609375 325.882812 1213.210938 C 323.335938 1203.863281 320.785156 1194.511719 319.085938 1185.164062 C 313.136719 1159.664062 308.886719 1137.566406 289.335938 1135.019531 C 164.398438 1115.46875 144 1089.972656 141.449219 1082.324219 C 140.601562 1081.472656 140.601562 1079.773438 140.601562 1078.921875 C 326.734375 1048.324219 410.027344 861.339844 415.125 849.441406 C 427.875 823.09375 430.425781 800.144531 421.925781 780.597656 C 407.476562 745.75 363.28125 732.152344 334.382812 722.800781 C 327.585938 721.101562 321.632812 718.550781 317.386719 716.851562 C 279.988281 701.554688 268.089844 687.105469 269.789062 677.757812 C 271.488281 667.558594 290.1875 656.507812 305.484375 656.507812 C 308.886719 656.507812 312.285156 657.359375 314.835938 658.207031 C 340.332031 670.105469 364.132812 676.054688 384.53125 676.054688 C 416.828125 676.054688 431.277344 660.757812 432.976562 659.058594 L 436.375 654.808594 L 436.375 649.707031 C 435.523438 637.808594 434.675781 624.210938 433.824219 611.460938 C 427.027344 526.46875 421.078125 422.777344 446.574219 364.980469 C 523.917969 190.746094 688.804688 177.148438 737.25 177.148438 C 738.101562 177.148438 759.347656 177.148438 759.347656 177.148438 C 760.199219 177.148438 761.046875 177.148438 762.746094 177.148438 M 762.746094 150.800781 C 761.898438 150.800781 760.199219 150.800781 759.347656 150.800781 C 759.347656 150.800781 738.949219 150.800781 737.25 150.800781 C 684.554688 150.800781 506.070312 165.25 421.925781 353.933594 C 393.878906 417.675781 400.679688 524.769531 405.777344 611.460938 C 406.628906 621.660156 407.476562 631.859375 407.476562 642.910156 C 403.226562 645.457031 395.578125 648.007812 382.828125 648.007812 C 365.832031 648.007812 346.28125 642.910156 324.183594 632.710938 C 318.234375 630.160156 311.4375 628.460938 303.785156 628.460938 C 277.4375 628.460938 246.839844 645.457031 241.742188 670.957031 C 238.339844 689.65625 246.839844 716.003906 305.484375 739.800781 C 310.585938 741.5 317.386719 744.050781 324.183594 745.75 C 348.832031 753.398438 385.378906 765.296875 395.578125 789.097656 C 400.679688 800.996094 398.976562 817.144531 389.628906 835.84375 C 389.628906 836.691406 389.628906 836.691406 388.777344 837.542969 C 385.378906 845.191406 307.1875 1022.828125 134.648438 1051.726562 C 121.050781 1054.273438 111.703125 1066.171875 112.550781 1078.921875 C 112.550781 1083.171875 113.402344 1086.570312 115.101562 1090.820312 C 127.851562 1121.417969 183.097656 1143.515625 282.539062 1158.816406 C 285.9375 1163.066406 289.335938 1179.214844 291.886719 1189.414062 C 293.585938 1198.761719 296.136719 1208.960938 299.535156 1219.160156 C 302.9375 1229.359375 310.585938 1241.257812 330.132812 1241.257812 C 338.632812 1241.257812 347.984375 1239.558594 359.03125 1237.007812 C 376.03125 1233.609375 398.128906 1229.359375 427.027344 1229.359375 C 443.175781 1229.359375 459.324219 1231.058594 475.472656 1233.609375 C 507.769531 1238.710938 534.96875 1258.257812 566.414062 1280.355469 C 611.460938 1312.652344 663.304688 1349.199219 741.5 1349.199219 C 744.050781 1349.199219 745.75 1349.199219 748.300781 1349.199219 C 750.847656 1349.199219 754.25 1349.199219 757.648438 1349.199219 C 835.84375 1349.199219 886.835938 1312.652344 932.734375 1280.355469 C 964.179688 1258.257812 992.230469 1238.710938 1024.527344 1233.609375 C 1040.675781 1231.058594 1057.671875 1229.359375 1072.972656 1229.359375 C 1100.171875 1229.359375 1121.417969 1232.757812 1140.964844 1236.160156 C 1152.867188 1238.710938 1163.066406 1239.558594 1169.863281 1239.558594 L 1171.5625 1239.558594 C 1186.011719 1239.558594 1197.0625 1231.910156 1201.3125 1217.460938 C 1204.710938 1207.261719 1206.410156 1197.914062 1208.960938 1187.714844 C 1210.660156 1178.363281 1214.910156 1162.214844 1217.460938 1157.964844 C 1317.75 1142.667969 1372.148438 1120.570312 1384.894531 1089.972656 C 1386.597656 1085.722656 1387.445312 1082.320312 1387.445312 1078.074219 C 1388.296875 1064.472656 1378.945312 1052.574219 1365.347656 1050.875 C 1191.960938 1021.976562 1113.769531 844.34375 1111.21875 836.691406 C 1111.21875 835.84375 1111.21875 835.84375 1110.367188 834.992188 C 1101.019531 816.292969 1099.320312 800.144531 1104.417969 788.246094 C 1114.617188 764.449219 1151.164062 753.398438 1175.8125 744.902344 C 1182.613281 742.351562 1189.414062 740.652344 1194.511719 738.949219 C 1237.859375 721.953125 1259.105469 700.703125 1259.105469 676.90625 C 1259.105469 658.207031 1243.808594 641.210938 1220.011719 632.710938 C 1212.359375 629.308594 1203.011719 627.609375 1193.660156 627.609375 C 1187.710938 627.609375 1178.363281 628.460938 1169.015625 632.710938 C 1148.617188 642.058594 1129.917969 647.160156 1113.769531 648.007812 C 1103.570312 647.160156 1095.921875 644.609375 1092.519531 642.910156 C 1093.371094 634.410156 1093.371094 625.058594 1094.21875 615.710938 L 1094.21875 612.3125 C 1099.320312 525.617188 1106.121094 417.675781 1078.070312 354.78125 C 993.929688 165.25 815.445312 150.800781 762.746094 150.800781 Z M 762.746094 150.800781 " fill-opacity="1" fill-rule="nonzero"/></svg>