<svg xmlns="http://www.w3.org/2000/svg" xmlns:xlink="http://www.w3.org/1999/xlink" width="2000" zoomAndPan="magnify" viewBox="0 0 1500 1499.999933" height="2000" preserveAspectRatio="xMidYMid meet" version="1.0"><defs><clipPath id="afcf9d3eb9"><path d="M 179.605469 177 L 1320.355469 177 L 1320.355469 1323.226562 L 179.605469 1323.226562 Z M 179.605469 177 " clip-rule="nonzero"/></clipPath></defs><g clip-path="url(#afcf9d3eb9)"><path fill="#ffffff" d="M 1154.058594 343.609375 C 1046.839844 236.273438 904.253906 177.054688 752.320312 177.054688 C 439.269531 177.054688 184.476562 431.789062 184.363281 744.953125 C 184.363281 845.035156 210.488281 942.792969 260.191406 1028.875 L 179.605469 1323.167969 L 480.695312 1244.167969 C 563.664062 1289.449219 657.054688 1313.25 752.09375 1313.304688 L 752.320312 1313.304688 C 1065.3125 1313.304688 1320.164062 1058.511719 1320.21875 745.40625 C 1320.21875 593.640625 1261.28125 451 1154.003906 343.609375 Z M 752.320312 1217.417969 L 752.148438 1217.417969 C 667.484375 1217.417969 584.347656 1194.636719 511.867188 1151.625 L 494.636719 1141.367188 L 315.953125 1188.234375 L 363.613281 1014.027344 L 352.394531 996.175781 C 305.128906 921.03125 280.195312 834.152344 280.25 744.953125 C 280.363281 484.71875 492.144531 272.941406 752.488281 272.941406 C 878.582031 272.941406 997.082031 322.132812 1086.226562 411.386719 C 1175.367188 500.589844 1224.386719 619.199219 1224.332031 745.351562 C 1224.21875 1005.640625 1012.4375 1217.417969 752.261719 1217.417969 Z M 1011.25 863.90625 C 997.082031 856.820312 927.320312 822.480469 914.285156 817.773438 C 901.25 813.015625 891.84375 810.691406 882.378906 824.859375 C 872.914062 839.082031 845.714844 871.046875 837.441406 880.511719 C 829.164062 889.972656 820.890625 891.164062 806.667969 884.023438 C 792.5 876.941406 746.765625 861.921875 692.53125 813.582031 C 650.367188 775.953125 621.863281 729.480469 613.589844 715.257812 C 605.316406 701.035156 612.738281 693.382812 619.824219 686.300781 C 626.171875 679.953125 633.992188 669.695312 641.132812 661.421875 C 648.214844 653.144531 650.597656 647.195312 655.300781 637.730469 C 660.058594 628.269531 657.679688 619.992188 654.109375 612.851562 C 650.539062 605.769531 622.203125 535.894531 610.359375 507.503906 C 598.855469 479.847656 587.125 483.585938 578.453125 483.132812 C 570.179688 482.738281 560.714844 482.625 551.25 482.625 C 541.789062 482.625 526.429688 486.136719 513.394531 500.363281 C 500.359375 514.585938 463.75 548.929688 463.75 618.746094 C 463.75 688.566406 514.585938 756.0625 521.726562 765.582031 C 528.808594 775.046875 621.808594 918.367188 764.164062 979.855469 C 797.996094 994.476562 824.460938 1003.203125 845.089844 1009.777344 C 879.09375 1020.601562 910.035156 1019.070312 934.460938 1015.386719 C 961.71875 1011.304688 1018.390625 981.042969 1030.234375 947.890625 C 1042.078125 914.738281 1042.078125 886.347656 1038.507812 880.398438 C 1034.9375 874.445312 1025.472656 870.933594 1011.304688 863.792969 Z M 1011.25 863.90625 " fill-opacity="1" fill-rule="evenodd"/></g></svg>